<?xml version="1.0" encoding="UTF-8"?>
<!DOCTYPE svg PUBLIC "-//W3C//DTD SVG 1.1//EN" "http://www.w3.org/Graphics/SVG/1.1/DTD/svg11.dtd">
<!-- Creator: CorelDRAW X7 -->
<svg xmlns="http://www.w3.org/2000/svg" xml:space="preserve" width="4134px" height="2480px" version="1.1" style="shape-rendering:geometricPrecision; text-rendering:geometricPrecision; image-rendering:optimizeQuality; fill-rule:evenodd; clip-rule:evenodd"
viewBox="0 0 4134 2480"
 xmlns:xlink="http://www.w3.org/1999/xlink"
 enable-background="new -14 338 1348 340">
 <defs>
  <style type="text/css">
   <![CDATA[
    .str0 {stroke:white;stroke-width:9.44914}
    .fil0 {fill:#FEFEFE;fill-rule:nonzero}
    .fil1 {fill:#D93725;fill-rule:nonzero}
   ]]>
  </style>
 </defs>
 <g id="Слой_x0020_1">
  <metadata id="CorelCorpID_0Corel-Layer"/>
  <path class="fil0 str0" d="M358 1050c0,0 38,-11 55,-73 0,0 36,-11 54,0 6,3 18,3 25,-3 4,-3 5,-18 10,-18 16,-2 0,-25 -17,-28 -31,-4 -205,37 -226,102 0,0 -7,117 81,158 0,0 -26,187 28,241 0,0 7,125 22,123 16,-1 155,-22 165,-23 11,-2 -16,-125 36,-124 0,0 104,120 164,77 60,-42 98,-114 110,-146 10,-27 -22,-100 -62,-80 -4,2 -12,4 -16,9 -4,4 0,12 -6,15 -11,21 5,32 14,35 8,2 31,-9 19,19 0,0 -37,50 -83,56 0,0 1,-52 -47,-36 0,0 10,-77 -75,-94 0,0 20,-27 35,-25l9 -1 4 -40c0,0 34,-14 45,-8 10,6 -2,-123 -127,-110 0,0 -55,16 -54,95 0,0 -1,5 -21,-3 -21,-9 -6,-60 -85,-61 0,0 0,-60 -57,-57z"/>
  <g id="_1173019680">
   <path class="fil0" d="M1205 1412c2,-8 3,-15 3,-22 0,-27 -16,-40 -49,-40l-115 0c-10,0 -14,-3 -14,-10 0,-2 0,-5 1,-9l7 -29c2,-8 4,-12 8,-15 3,-3 8,-4 14,-4l128 0c8,0 17,1 25,2 8,1 15,3 20,5l5 -46 -211 0c-20,0 -37,5 -50,15 -13,10 -22,26 -28,47l-16 67c-2,8 -4,16 -4,23 0,26 17,40 50,40l115 0c10,0 14,3 14,9 0,3 0,5 -1,9l-10 41c-2,7 -4,11 -7,14 -4,3 -9,4 -15,4l-127 0c-9,0 -17,-1 -25,-2 -8,-1 -15,-2 -21,-5l-4 46 210 0c42,0 67,-20 78,-62l19 -78zm122 31l138 0c25,0 45,-5 60,-15 15,-10 25,-26 30,-48l19 -73c2,-8 2,-15 2,-21 0,-28 -20,-42 -61,-42l-234 0c0,1 0,2 0,3 0,2 0,3 0,4 0,10 -2,21 -5,34l-57 226c-3,16 -9,30 -16,41l103 0c0,-1 0,-2 0,-3 -1,-2 -1,-3 -1,-4 0,-10 2,-21 5,-34l17 -68zm40 -160l101 0c7,0 12,1 15,3 3,2 4,5 4,10 0,4 -1,9 -3,16l-16 64c-2,11 -6,19 -10,22 -4,4 -11,6 -20,6l-101 0 30 -121zm428 269c41,0 67,-20 77,-62l46 -184c2,-8 3,-16 3,-22 0,-27 -16,-40 -49,-40l-182 0c-20,0 -37,5 -50,15 -13,10 -22,26 -28,47l-46 184c-2,8 -3,16 -3,22 0,27 17,40 50,40l182 0zm-126 -39c-10,0 -14,-3 -14,-10 0,-2 0,-5 1,-8l48 -193c2,-8 4,-12 8,-15 3,-3 8,-4 14,-4l90 0c9,0 14,3 14,10 0,2 -1,5 -1,9l-48 193c-2,7 -4,11 -8,14 -3,3 -8,4 -15,4l-89 0zm358 -97l67 0 20 136 103 0c-7,-8 -12,-19 -14,-32l-15 -102c18,-3 32,-8 41,-17 10,-8 16,-20 20,-35l16 -63c1,-7 2,-14 2,-20 0,-26 -16,-39 -49,-39l-244 0c0,1 0,2 0,3 0,2 0,3 0,4 0,10 -2,21 -5,34l-57 226c-4,16 -9,30 -16,41l103 0c0,-1 0,-2 0,-3 -1,-2 -1,-3 -1,-4 0,-10 2,-21 5,-34l24 -95zm33 -133l106 0c8,0 12,4 12,10 0,3 0,7 -2,11l-12 52c-2,8 -5,13 -8,16 -3,3 -8,5 -14,5l-105 0 23 -94zm245 -39l-20 46c8,-2 16,-4 24,-5 9,-1 17,-2 26,-2l47 0 -57 228c-3,16 -9,30 -16,41l103 0c0,-1 0,-2 0,-3 -1,-2 -1,-3 -1,-4 0,-10 2,-21 5,-34l57 -228 47 0c9,0 17,1 25,2 8,1 15,3 21,5l4 -46 -265 0zm1100 76l-48 191c-4,16 -9,30 -16,41l102 0c0,-1 0,-2 0,-3 0,-2 0,-3 0,-4 0,-10 2,-21 5,-34l67 -267 -33 0 -107 39 -9 37 39 0zm345 232c17,0 32,-4 45,-14 12,-10 21,-24 25,-42l21 -84c2,-7 3,-13 3,-18 0,-13 -4,-22 -12,-29 -8,-6 -19,-9 -33,-9l-131 0c-11,0 -19,6 -25,19l-1 0 20 -80c2,-8 8,-12 20,-12l143 0c11,0 19,1 24,1 6,1 12,3 19,4l0 0 7 -44 -234 0c-18,0 -33,4 -45,14 -13,10 -21,24 -26,42l-49 196c-2,7 -2,13 -2,18 0,13 4,22 11,29 8,6 19,9 34,9l186 0zm-126 -39c-9,0 -13,-3 -13,-9 0,-2 0,-4 1,-7l21 -86c2,-6 4,-10 7,-13 3,-2 8,-3 14,-3l87 0c9,0 14,3 14,9 0,2 -1,4 -1,7l-22 86c-1,6 -4,10 -7,12 -3,3 -7,4 -14,4l-87 0z"/>
   <path class="fil1" d="M2641 1443l138 0c25,0 45,-5 60,-15 15,-10 25,-26 30,-48l19 -73c1,-8 2,-15 2,-21 0,-28 -20,-42 -61,-42l-234 0c0,1 0,2 0,3 0,2 0,3 0,4 0,10 -2,21 -5,34l-57 226c-4,16 -9,30 -16,41l103 0c0,-1 0,-2 0,-3 -1,-2 -1,-3 -1,-4 0,-10 2,-21 5,-34l17 -68zm40 -160l101 0c7,0 11,1 15,3 3,2 4,5 4,10 0,4 -1,9 -3,16l-16 64c-2,11 -6,19 -10,22 -4,4 -11,6 -20,6l-101 0 30 -121zm269 -39c0,1 0,2 0,3 0,2 0,3 0,4 0,10 -2,21 -5,34l-57 226c-3,16 -9,30 -15,41l102 0c0,-1 0,-2 0,-3 0,-2 -1,-3 -1,-4 0,-10 2,-21 5,-34l57 -226c4,-16 9,-30 16,-41l-102 0zm142 0l-20 46c7,-2 15,-4 24,-5 8,-1 17,-2 26,-2l47 0 -57 228c-4,16 -9,30 -16,41l102 0c0,-1 0,-2 0,-3 0,-2 0,-3 0,-4 0,-10 1,-21 5,-34l57 -228 47 0c9,0 17,1 25,2 8,1 15,3 21,5l4 -46 -265 0z"/>
  </g>
 </g>
</svg>
