<?xml version="1.0" encoding="utf-8"?>
<!-- Generator: Adobe Illustrator 21.0.2, SVG Export Plug-In . SVG Version: 6.00 Build 0)  -->
<svg version="1.1" id="Слой_1" xmlns="http://www.w3.org/2000/svg" xmlns:xlink="http://www.w3.org/1999/xlink" x="0px" y="0px"
	 viewBox="0 0 3649.3 656" style="enable-background:new 0 0 3649.3 656;" xml:space="preserve">
<style type="text/css">
	.st0{fill:#161616;}
	.st1{fill:#D93725;}
</style>
<g>
	<path class="st0" d="M110.3,138.9c0,0,38-11,55-73c0,0,36-11,54,0c6,3,18,3,25-3c4-3,5-18,10-18c16-2,0-25-17-28
		c-31-4-205,37-226,102c0,0-7,117,81,158c0,0-26,187,28,241c0,0,7,125,22,123c16-1,155-22,165-23c11-2-16-125,36-124
		c0,0,104,120,164,77c60-42,98-114,110-146c10-27-22-100-62-80c-4,2-12,4-16,9c-4,4,0,12-6,15c-11,21,5,32,14,35c8,2,31-9,19,19
		c0,0-37,50-83,56c0,0,1-52-47-36c0,0,10-77-75-94c0,0,20-27,35-25l9-1l4-40c0,0,34-14,45-8c10,6-2-123-127-110c0,0-55,16-54,95
		c0,0-1,5-21-3c-21-9-6-60-85-61C167.3,195.9,167.3,135.9,110.3,138.9z"/>
	<path class="st0" d="M957.3,500.9c2-8,3-15,3-22c0-27-16-40-49-40h-115c-10,0-14-3-14-10c0-2,0-5,1-9l7-29c2-8,4-12,8-15
		c3-3,8-4,14-4h128c8,0,17,1,25,2s15,3,20,5l5-46h-211c-20,0-37,5-50,15s-22,26-28,47l-16,67c-2,8-4,16-4,23c0,26,17,40,50,40h115
		c10,0,14,3,14,9c0,3,0,5-1,9l-10,41c-2,7-4,11-7,14c-4,3-9,4-15,4h-127c-9,0-17-1-25-2s-15-2-21-5l-4,46h210c42,0,67-20,78-62
		L957.3,500.9z M1079.3,531.9h138c25,0,45-5,60-15s25-26,30-48l19-73c2-8,2-15,2-21c0-28-20-42-61-42h-234c0,1,0,2,0,3c0,2,0,3,0,4
		c0,10-2,21-5,34l-57,226c-3,16-9,30-16,41h103c0-1,0-2,0-3c-1-2-1-3-1-4c0-10,2-21,5-34L1079.3,531.9z M1119.3,371.9h101
		c7,0,12,1,15,3s4,5,4,10c0,4-1,9-3,16l-16,64c-2,11-6,19-10,22c-4,4-11,6-20,6h-101L1119.3,371.9z M1547.3,640.9c41,0,67-20,77-62
		l46-184c2-8,3-16,3-22c0-27-16-40-49-40h-182c-20,0-37,5-50,15s-22,26-28,47l-46,184c-2,8-3,16-3,22c0,27,17,40,50,40H1547.3z
		 M1421.3,601.9c-10,0-14-3-14-10c0-2,0-5,1-8l48-193c2-8,4-12,8-15c3-3,8-4,14-4h90c9,0,14,3,14,10c0,2-1,5-1,9l-48,193
		c-2,7-4,11-8,14c-3,3-8,4-15,4H1421.3z M1779.3,504.9h67l20,136h103c-7-8-12-19-14-32l-15-102c18-3,32-8,41-17c10-8,16-20,20-35
		l16-63c1-7,2-14,2-20c0-26-16-39-49-39h-244c0,1,0,2,0,3c0,2,0,3,0,4c0,10-2,21-5,34l-57,226c-4,16-9,30-16,41h103c0-1,0-2,0-3
		c-1-2-1-3-1-4c0-10,2-21,5-34L1779.3,504.9z M1812.3,371.9h106c8,0,12,4,12,10c0,3,0,7-2,11l-12,52c-2,8-5,13-8,16s-8,5-14,5h-105
		L1812.3,371.9z M2057.3,332.9l-20,46c8-2,16-4,24-5c9-1,17-2,26-2h47l-57,228c-3,16-9,30-16,41h103c0-1,0-2,0-3c-1-2-1-3-1-4
		c0-10,2-21,5-34l57-228h47c9,0,17,1,25,2s15,3,21,5l4-46H2057.3z M3157.3,408.9l-48,191c-4,16-9,30-16,41h102c0-1,0-2,0-3
		c0-2,0-3,0-4c0-10,2-21,5-34l67-267h-33l-107,39l-9,37H3157.3z M3502.3,640.9c17,0,32-4,45-14c12-10,21-24,25-42l21-84
		c2-7,3-13,3-18c0-13-4-22-12-29c-8-6-19-9-33-9h-131c-11,0-19,6-25,19h-1l20-80c2-8,8-12,20-12h143c11,0,19,1,24,1c6,1,12,3,19,4
		l0,0l7-44h-234c-18,0-33,4-45,14c-13,10-21,24-26,42l-49,196c-2,7-2,13-2,18c0,13,4,22,11,29c8,6,19,9,34,9H3502.3z M3376.3,601.9
		c-9,0-13-3-13-9c0-2,0-4,1-7l21-86c2-6,4-10,7-13c3-2,8-3,14-3h87c9,0,14,3,14,9c0,2-1,4-1,7l-22,86c-1,6-4,10-7,12c-3,3-7,4-14,4
		H3376.3z"/>
	<path class="st1" d="M2393.3,531.9h138c25,0,45-5,60-15s25-26,30-48l19-73c1-8,2-15,2-21c0-28-20-42-61-42h-234c0,1,0,2,0,3
		c0,2,0,3,0,4c0,10-2,21-5,34l-57,226c-4,16-9,30-16,41h103c0-1,0-2,0-3c-1-2-1-3-1-4c0-10,2-21,5-34L2393.3,531.9z M2433.3,371.9
		h101c7,0,11,1,15,3c3,2,4,5,4,10c0,4-1,9-3,16l-16,64c-2,11-6,19-10,22c-4,4-11,6-20,6h-101L2433.3,371.9z M2702.3,332.9
		c0,1,0,2,0,3c0,2,0,3,0,4c0,10-2,21-5,34l-57,226c-3,16-9,30-15,41h102c0-1,0-2,0-3c0-2-1-3-1-4c0-10,2-21,5-34l57-226
		c4-16,9-30,16-41H2702.3z M2844.3,332.9l-20,46c7-2,15-4,24-5c8-1,17-2,26-2h47l-57,228c-4,16-9,30-16,41h102c0-1,0-2,0-3
		c0-2,0-3,0-4c0-10,1-21,5-34l57-228h47c9,0,17,1,25,2s15,3,21,5l4-46H2844.3z"/>
</g>
</svg>
